<?xml version="1.0" encoding="utf-8"?>
<!-- Generator: Adobe Illustrator 27.0.0, SVG Export Plug-In . SVG Version: 6.00 Build 0)  -->
<svg version="1.1" id="Layer_1" xmlns="http://www.w3.org/2000/svg" xmlns:xlink="http://www.w3.org/1999/xlink" x="0px" y="0px"
	 viewBox="0 0 664.7 511.9" style="enable-background:new 0 0 664.7 511.9;" xml:space="preserve">
<style type="text/css">
	.st0{fill:#D8CB91;}
	.st1{fill:url(#SVGID_1_);}
	.st2{fill:url(#SVGID_00000024681319731227509620000002799737021620693891_);}
	.st3{fill:url(#SVGID_00000085226411244118266450000015357759437295883444_);}
	.st4{fill:url(#SVGID_00000061443086217516347180000002580951343862179252_);}
</style>
<g>
	<g>
		<path class="st0" d="M9,504.9v-0.6h0.7c1.1,0,1.8-0.4,2.2-1.1c0.1-0.2,0.1-0.9,0.1-2v-14.2c0-0.9,0-1.4,0-1.6
			c-0.1-0.5-0.4-0.9-0.8-1.2c-0.4-0.2-0.8-0.3-1.4-0.3H9v-0.6h9.6c2.6,0,4.6,0.3,6.2,1c1.9,0.9,3.4,2.2,4.4,4c1,1.7,1.4,3.6,1.4,5.8
			c0,3-0.9,5.5-2.6,7.3c-1.4,1.6-3.6,2.6-6.4,3.2c-0.6,0.1-1.7,0.2-3,0.2H9z M17.2,484.6v16.8c0,0.9,0,1.4,0.1,1.6
			c0.2,0.5,0.8,0.7,1.7,0.7c1.8,0,3.1-0.6,4-1.8c1.3-1.6,1.9-4.2,1.9-7.6c0-5-1.3-8.1-4-9.2C20.3,484.8,19,484.6,17.2,484.6z"/>
		<path class="st0" d="M44,504.3v0.6H32.7v-0.6h0.7c0.8,0,1.4-0.2,1.8-0.5c0.4-0.4,0.5-1.2,0.5-2.6v-14.2c0-0.9,0-1.4,0-1.6
			c-0.1-0.5-0.4-0.9-0.8-1.2c-0.4-0.2-0.8-0.3-1.4-0.3h-0.7v-0.6H44v0.6h-0.7c-0.6,0-1.1,0.1-1.5,0.3c-0.3,0.1-0.5,0.4-0.7,0.8
			c-0.1,0.3-0.2,0.9-0.2,2v14.2c0,0.9,0,1.4,0,1.6c0.1,0.5,0.4,0.9,0.8,1.2c0.3,0.2,0.8,0.3,1.4,0.3H44z"/>
		<path class="st0" d="M76.9,483.4v0.6c-0.8,0.1-1.3,0.5-1.7,1.2c-0.1,0.3-0.5,1.1-1,2.5l-6.7,17.8h-0.6l-5.3-13.9l-5.9,13.9H55
			L48,487.8c-0.6-1.6-1-2.4-1-2.4c-0.5-0.9-1.1-1.3-2-1.4v-0.6h9.3v0.6c-1.2,0-1.9,0.4-1.9,1.1c0,0.4,0.2,1.3,0.8,2.6l4.2,10.4
			l3.4-8.2l-0.9-2.3c-0.4-1-0.6-1.6-0.8-1.9c-0.4-0.8-0.8-1.3-1.3-1.5c-0.3-0.2-0.8-0.2-1.5-0.3v-0.6h10.4v0.6
			c-0.8,0-1.3,0.1-1.6,0.2c-0.2,0.1-0.4,0.2-0.5,0.4c-0.1,0.2-0.2,0.4-0.2,0.6c0,0.3,0.2,1,0.7,2.2l3.9,10.2l3.5-9.2
			c0.2-0.5,0.4-1.1,0.7-2.1c0.1-0.3,0.1-0.5,0.1-0.8c0-0.4-0.1-0.7-0.4-1s-0.9-0.4-1.7-0.4v-0.6H76.9z"/>
		<path class="st0" d="M87.1,498.8h-7.6l-0.9,2.1c-0.3,0.7-0.4,1.2-0.4,1.7c0,0.6,0.2,1,0.7,1.3c0.3,0.2,1,0.3,2.1,0.4v0.6h-7.2
			v-0.6c0.9-0.1,1.7-0.7,2.4-1.6c0.3-0.4,0.8-1.3,1.4-2.6l7.7-17.2h0.3l7.8,17.6c0.7,1.7,1.3,2.7,1.8,3.2c0.3,0.3,0.9,0.5,1.5,0.6
			v0.6H86.3v-0.6h0.4c1.4,0,2.1-0.4,2.1-1.1c0-0.2,0-0.4-0.1-0.6c0-0.1-0.2-0.5-0.5-1.2L87.1,498.8z M86.6,497.6l-3.2-7.4l-3.3,7.4
			H86.6z"/>
		<path class="st0" d="M105.2,483.4l10.6,13.3v-9.2c0-1.3-0.2-2.2-0.6-2.6c-0.5-0.6-1.3-0.9-2.6-0.9v-0.6h7.1v0.6
			c-0.7,0.1-1.2,0.2-1.5,0.3c-0.5,0.2-0.8,0.6-1,1.1c-0.2,0.4-0.3,1.1-0.3,2.1v17.9h-0.5l-14.6-17.9v13.7c0,2.1,0.9,3.2,2.8,3.2h0.5
			v0.6h-7.6v-0.6c1.2,0,2-0.2,2.5-0.7c0.5-0.5,0.7-1.3,0.7-2.4V486l-0.5-0.6c-0.4-0.6-0.8-0.9-1.2-1.1c-0.3-0.2-0.9-0.3-1.5-0.3
			v-0.6H105.2z"/>
		<path class="st0" d="M143,483.1c3.6,0,6.3,1,8.3,3c2.1,2.1,3.2,4.8,3.2,8c0,2.7-0.8,5.1-2.4,7.2c-2.1,2.8-5.1,4.1-9,4.1
			c-3.9,0-6.9-1.3-9-3.9c-1.7-2.1-2.5-4.5-2.5-7.4c0-3.2,1.1-5.9,3.3-8C137,484.1,139.7,483.1,143,483.1z M143.2,484.1
			c-2.2,0-3.8,1.2-4.8,3.7c-0.7,1.7-1,3.8-1,6.5c0,3.7,0.6,6.4,1.9,8.1c0.9,1.2,2.1,1.8,3.8,1.8c2.3,0,4-1.3,4.9-4
			c0.5-1.5,0.8-3.4,0.8-5.8c0-4.9-0.9-8.1-2.8-9.4C145.2,484.4,144.2,484.1,143.2,484.1z"/>
		<path class="st0" d="M164.6,484.6v8.8h0.6c1.8,0,3.1-0.6,3.9-1.9c0.4-0.7,0.7-1.6,0.8-2.7h0.6v10.8h-0.6c-0.3-3.3-1.9-5-4.7-5
			h-0.6v6.6c0,0.9,0,1.4,0,1.6c0.1,0.5,0.4,0.9,0.8,1.2c0.3,0.2,0.8,0.3,1.4,0.3h0.7v0.6h-11.3v-0.6h0.7c0.8,0,1.4-0.2,1.8-0.5
			c0.4-0.4,0.5-1.2,0.5-2.6v-14.2c0-0.9,0-1.4,0-1.6c-0.1-0.5-0.4-0.9-0.8-1.2c-0.4-0.2-0.8-0.3-1.4-0.3h-0.7v-0.6h18.2v6.2h-0.7
			c-0.1-1.3-0.5-2.3-1-3.1c-0.6-0.8-1.5-1.3-2.7-1.6c-0.6-0.2-1.8-0.2-3.5-0.2H164.6z"/>
		<path class="st0" d="M185.3,504.9v-0.6h0.7c1.1,0,1.8-0.4,2.2-1.1c0.1-0.2,0.1-0.9,0.1-2v-14.2c0-0.9,0-1.4,0-1.6
			c-0.1-0.5-0.4-0.9-0.8-1.2c-0.4-0.2-0.8-0.3-1.4-0.3h-0.7v-0.6h9.6c2.6,0,4.6,0.3,6.2,1c1.9,0.9,3.4,2.2,4.4,4
			c1,1.7,1.4,3.6,1.4,5.8c0,3-0.9,5.5-2.6,7.3c-1.4,1.6-3.6,2.6-6.4,3.2c-0.6,0.1-1.7,0.2-3,0.2H185.3z M193.5,484.6v16.8
			c0,0.9,0,1.4,0.1,1.6c0.2,0.5,0.8,0.7,1.7,0.7c1.8,0,3.1-0.6,4-1.8c1.3-1.6,1.9-4.2,1.9-7.6c0-5-1.3-8.1-4-9.2
			C196.5,484.8,195.3,484.6,193.5,484.6z"/>
		<path class="st0" d="M220.2,504.3v0.6H209v-0.6h0.7c0.8,0,1.4-0.2,1.8-0.5c0.4-0.4,0.5-1.2,0.5-2.6v-14.2c0-0.9,0-1.4,0-1.6
			c-0.1-0.5-0.4-0.9-0.8-1.2c-0.4-0.2-0.8-0.3-1.4-0.3H209v-0.6h11.2v0.6h-0.7c-0.6,0-1.1,0.1-1.5,0.3c-0.3,0.1-0.5,0.4-0.7,0.8
			c-0.1,0.3-0.2,0.9-0.2,2v14.2c0,0.9,0,1.4,0,1.6c0.1,0.5,0.4,0.9,0.8,1.2c0.3,0.2,0.8,0.3,1.4,0.3H220.2z"/>
		<path class="st0" d="M236.2,482.9l0.2,7.2h-0.7c-0.3-1.6-0.9-3-2-4.1c-1.2-1.2-2.5-1.9-4.1-1.9c-0.9,0-1.7,0.2-2.4,0.7
			c-0.7,0.5-1.1,1.3-1.1,2.1c0,1,0.6,1.9,1.8,2.7c0.5,0.3,1.6,1,3.4,1.9c2,1,3.5,1.9,4.4,2.7c1.3,1.3,2,2.8,2,4.5
			c0,2-0.8,3.6-2.3,4.8c-1.4,1.2-3.2,1.8-5.2,1.8c-1.2,0-2.6-0.3-4.2-1c-0.5-0.2-0.9-0.3-1.3-0.3c-0.7,0-1.2,0.4-1.6,1.3h-0.6v-8.1
			h0.6c0.4,1.9,1.1,3.6,2.3,4.8c1.3,1.5,2.9,2.2,4.7,2.2c1,0,1.9-0.3,2.6-0.8c0.8-0.6,1.2-1.4,1.2-2.4c0-0.5-0.1-1-0.4-1.5
			c-0.5-0.9-1.9-1.9-4.1-3c-1.6-0.8-2.7-1.4-3.5-1.9c-1.3-0.9-2.2-1.8-2.7-2.8c-0.4-0.8-0.7-1.7-0.7-2.8c0-1.8,0.7-3.3,2-4.5
			c1.3-1.1,2.8-1.7,4.7-1.7c1.2,0,2.5,0.3,3.8,1c0.7,0.3,1.2,0.5,1.5,0.5c0.3,0,0.5-0.1,0.6-0.2c0.2-0.2,0.3-0.6,0.5-1.2H236.2z"/>
		<path class="st0" d="M259.5,483.4v5.8H259c-0.3-1.1-0.6-2-0.9-2.5c-0.4-0.8-1.1-1.4-1.9-1.8c-0.4-0.2-1.1-0.3-2.1-0.3h-1.6v16.6
			c0,0.9,0,1.4,0,1.6c0.1,0.5,0.4,0.9,0.8,1.2c0.3,0.2,0.8,0.3,1.5,0.3h0.7v0.6h-11.3v-0.6h0.7c0.6,0,1.1-0.1,1.5-0.3
			c0.3-0.1,0.5-0.4,0.7-0.8c0.1-0.3,0.2-0.9,0.2-2v-16.6h-1.6c-1.5,0-2.5,0.3-3.2,0.9c-0.9,0.8-1.5,2.1-1.7,3.7h-0.6v-5.8H259.5z"/>
		<path class="st0" d="M272.6,504.3v0.6h-11.2v-0.6h0.7c0.8,0,1.4-0.2,1.8-0.5c0.4-0.4,0.5-1.2,0.5-2.6v-14.2c0-0.9,0-1.4,0-1.6
			c-0.1-0.5-0.4-0.9-0.8-1.2c-0.4-0.2-0.8-0.3-1.4-0.3h-0.7v-0.6h11.2v0.6h-0.7c-0.6,0-1.1,0.1-1.5,0.3c-0.3,0.1-0.5,0.4-0.7,0.8
			c-0.1,0.3-0.2,0.9-0.2,2v14.2c0,0.9,0,1.4,0,1.6c0.1,0.5,0.4,0.9,0.8,1.2c0.3,0.2,0.8,0.3,1.4,0.3H272.6z"/>
		<path class="st0" d="M281.4,483.4l10.6,13.3v-9.2c0-1.3-0.2-2.2-0.6-2.6c-0.5-0.6-1.3-0.9-2.6-0.9v-0.6h7.1v0.6
			c-0.7,0.1-1.2,0.2-1.5,0.3c-0.5,0.2-0.8,0.6-1,1.1c-0.2,0.4-0.3,1.1-0.3,2.1v17.9h-0.5l-14.6-17.9v13.7c0,2.1,0.9,3.2,2.8,3.2h0.5
			v0.6h-7.6v-0.6c1.2,0,2-0.2,2.5-0.7c0.5-0.5,0.7-1.3,0.7-2.4V486l-0.5-0.6c-0.4-0.6-0.8-0.9-1.2-1.1c-0.3-0.2-0.9-0.3-1.5-0.3
			v-0.6H281.4z"/>
		<path class="st0" d="M319.2,482.9v7.6h-0.6c-0.6-1.9-1.6-3.4-2.9-4.5c-1.4-1.2-3.1-1.9-4.9-1.9c-3.2,0-5.3,1.7-6.3,5.1
			c-0.4,1.6-0.7,3.3-0.7,5c0,4.5,1,7.5,3.1,8.9c1.1,0.7,2.4,1.1,3.9,1.1c1,0,2.1-0.2,3.3-0.7v-4.5c0-0.7,0-1.1-0.1-1.3
			c-0.1-0.4-0.4-0.7-0.8-1c-0.4-0.2-0.8-0.3-1.3-0.3h-0.6v-0.6h10.5v0.6c-1.3,0.1-2.1,0.5-2.4,1.1c-0.1,0.2-0.1,0.7-0.1,1.5v4.5
			c-2.8,1.2-5.8,1.9-8.9,1.9c-3.5,0-6.4-1-8.7-3c-2.3-2.1-3.5-4.7-3.5-8c0-3.4,1.2-6.1,3.5-8.3c2.3-2.2,5.1-3.2,8.5-3.2
			c1,0,2,0.1,2.9,0.3c0.3,0.1,1.1,0.3,2.2,0.7c1,0.4,1.7,0.6,1.9,0.6c0.6,0,1.1-0.5,1.5-1.6H319.2z"/>
		<path class="st0" d="M322.9,483.4H334v0.6h-0.6c-1.3,0-2.1,0.3-2.4,1c-0.1,0.3-0.2,1.1-0.2,2.3v10.5c0,1.5,0.1,2.5,0.2,3
			c0.2,1,0.8,1.8,1.7,2.3c0.7,0.4,1.5,0.6,2.5,0.6c2.3,0,3.9-1,4.8-3c0.4-0.9,0.6-2.5,0.6-4.8v-8.8c0-1.6-0.4-2.6-1.1-2.9
			c-0.5-0.2-1.1-0.3-2-0.4v-0.6h7.4v0.6h-0.4c-1.2,0-2,0.5-2.4,1.5c-0.1,0.4-0.2,1-0.2,1.8v8.2c0,2.3-0.1,3.9-0.3,4.8
			c-0.4,1.5-1.3,2.8-2.6,3.8c-1.3,0.9-3,1.4-5.3,1.4c-1.9,0-3.3-0.2-4.3-0.7c-1.4-0.7-2.4-1.6-3-2.8c-0.5-1-0.8-2.4-0.8-4.1v-10.5
			c0-0.9,0-1.5,0-1.7c-0.1-0.6-0.4-1.1-0.9-1.3c-0.3-0.2-0.9-0.3-1.9-0.3V483.4z"/>
		<path class="st0" d="M357.5,504.3v0.6h-11.2v-0.6h0.7c0.8,0,1.4-0.2,1.8-0.5c0.4-0.4,0.5-1.2,0.5-2.6v-14.2c0-0.9,0-1.4,0-1.6
			c-0.1-0.5-0.4-0.9-0.8-1.2c-0.4-0.2-0.8-0.3-1.4-0.3h-0.7v-0.6h11.2v0.6h-0.7c-0.6,0-1.1,0.1-1.5,0.3c-0.3,0.1-0.5,0.4-0.7,0.8
			c-0.1,0.3-0.2,0.9-0.2,2v14.2c0,0.9,0,1.4,0,1.6c0.1,0.5,0.4,0.9,0.8,1.2c0.3,0.2,0.8,0.3,1.4,0.3H357.5z"/>
		<path class="st0" d="M373.5,482.9l0.2,7.2H373c-0.3-1.6-0.9-3-2-4.1c-1.2-1.2-2.5-1.9-4.1-1.9c-0.9,0-1.7,0.2-2.4,0.7
			c-0.7,0.5-1.1,1.3-1.1,2.1c0,1,0.6,1.9,1.8,2.7c0.5,0.3,1.6,1,3.4,1.9c2,1,3.5,1.9,4.4,2.7c1.3,1.3,2,2.8,2,4.5
			c0,2-0.8,3.6-2.3,4.8c-1.4,1.2-3.2,1.8-5.2,1.8c-1.2,0-2.6-0.3-4.2-1c-0.5-0.2-0.9-0.3-1.3-0.3c-0.7,0-1.2,0.4-1.6,1.3h-0.6v-8.1
			h0.6c0.4,1.9,1.1,3.6,2.3,4.8c1.3,1.5,2.9,2.2,4.7,2.2c1,0,1.9-0.3,2.6-0.8c0.8-0.6,1.2-1.4,1.2-2.4c0-0.5-0.1-1-0.4-1.5
			c-0.5-0.9-1.9-1.9-4.1-3c-1.6-0.8-2.7-1.4-3.5-1.9c-1.3-0.9-2.2-1.8-2.7-2.8c-0.4-0.8-0.7-1.7-0.7-2.8c0-1.8,0.7-3.3,2-4.5
			c1.3-1.1,2.8-1.7,4.7-1.7c1.2,0,2.5,0.3,3.8,1c0.7,0.3,1.2,0.5,1.5,0.5c0.3,0,0.5-0.1,0.6-0.2c0.2-0.2,0.3-0.6,0.5-1.2H373.5z"/>
		<path class="st0" d="M385.2,494.6v6.7c0,0.9,0,1.4,0,1.6c0.1,0.5,0.4,0.9,0.8,1.2c0.3,0.2,0.8,0.3,1.4,0.3h0.7v0.6H377v-0.6h0.7
			c0.8,0,1.4-0.2,1.8-0.5c0.4-0.4,0.5-1.2,0.5-2.6v-14.2c0-0.9,0-1.4,0-1.6c-0.1-0.5-0.4-0.9-0.8-1.2c-0.4-0.2-0.8-0.3-1.4-0.3H377
			v-0.6h11.2v0.6h-0.7c-0.6,0-1.1,0.1-1.5,0.3c-0.3,0.1-0.5,0.4-0.7,0.8c-0.1,0.3-0.2,0.9-0.2,2v6.1h7.6v-6.1c0-0.9,0-1.4,0-1.6
			c-0.1-0.5-0.4-0.9-0.8-1.2c-0.4-0.2-0.9-0.3-1.4-0.3h-0.7v-0.6H401v0.6h-0.7c-0.6,0-1.1,0.1-1.5,0.3c-0.3,0.1-0.5,0.4-0.7,0.8
			c-0.1,0.3-0.2,0.9-0.2,2v14.2c0,0.9,0,1.4,0,1.6c0.1,0.5,0.4,1,0.8,1.2c0.3,0.2,0.8,0.3,1.4,0.3h0.7v0.6h-11.2v-0.6h0.7
			c0.6,0,1.1-0.1,1.5-0.3c0.3-0.1,0.5-0.4,0.7-0.8c0.1-0.3,0.2-0.9,0.2-2v-6.7H385.2z"/>
		<path class="st0" d="M410.4,484.6v8.8h0.4c1.4,0,2.5-0.5,3.1-1.5c0.5-0.8,0.8-1.9,1-3.5h0.6v11.3H415c-0.3-2.5-1-4-2.2-4.6
			c-0.5-0.3-1.3-0.4-2.3-0.4v6.1c0,1,0,1.5,0,1.6c0.1,0.6,0.3,1,0.7,1.3c0.3,0.2,0.7,0.3,1.3,0.3h1.3c3.9,0,6.4-1.9,7.4-5.6h0.6
			l-1,6.8h-18.6v-0.6h0.7c0.8,0,1.4-0.2,1.8-0.5c0.4-0.4,0.5-1.2,0.5-2.6v-14.2c0-1,0-1.6-0.1-1.8c-0.2-0.9-1-1.3-2.2-1.3h-0.7v-0.6
			h18v6.4h-0.6c-0.3-1.3-0.6-2.4-1.1-3c-0.6-0.8-1.4-1.4-2.6-1.8c-0.6-0.2-1.7-0.3-3.3-0.3H410.4z"/>
		<path class="st0" d="M423.7,504.9v-0.6h0.7c1.1,0,1.8-0.4,2.2-1.1c0.1-0.2,0.1-0.9,0.1-2v-14.2c0-0.9,0-1.4,0-1.6
			c-0.1-0.5-0.4-0.9-0.8-1.2c-0.4-0.2-0.8-0.3-1.4-0.3h-0.7v-0.6h9.6c2.6,0,4.6,0.3,6.2,1c1.9,0.9,3.4,2.2,4.4,4
			c1,1.7,1.4,3.6,1.4,5.8c0,3-0.9,5.5-2.6,7.3c-1.4,1.6-3.6,2.6-6.4,3.2c-0.6,0.1-1.7,0.2-3,0.2H423.7z M431.9,484.6v16.8
			c0,0.9,0,1.4,0.1,1.6c0.2,0.5,0.8,0.7,1.7,0.7c1.8,0,3.1-0.6,4-1.8c1.3-1.6,1.9-4.2,1.9-7.6c0-5-1.3-8.1-4-9.2
			C434.9,484.8,433.7,484.6,431.9,484.6z"/>
		<path class="st0" d="M470.1,491.6l7.6,9.5c1.1,1.3,2,2.2,2.8,2.7c0.5,0.3,1.1,0.5,1.8,0.5v0.6H471v-0.6c0.5,0,0.8-0.1,1-0.2
			c0.4-0.1,0.6-0.4,0.6-0.7c0-0.4-0.5-1.3-1.5-2.5l-4.9-6.2l-0.8,0.7v5.9c0,0.9,0,1.4,0,1.6c0.1,0.6,0.4,1,0.9,1.2
			c0.3,0.2,0.9,0.3,1.7,0.3v0.6h-10.9v-0.6h0.7c0.8,0,1.4-0.2,1.8-0.5c0.4-0.4,0.5-1.2,0.5-2.6v-14.2c0-0.9,0-1.4,0-1.6
			c-0.1-0.5-0.4-0.9-0.8-1.2c-0.4-0.2-0.8-0.3-1.4-0.3h-0.7v-0.6H468v0.6c-0.7,0-1.3,0.1-1.7,0.3c-0.3,0.1-0.5,0.4-0.7,0.7
			c-0.1,0.3-0.2,0.9-0.2,2v6.7l8-6.5c1.1-0.9,1.7-1.6,1.7-2.2c0-0.4-0.2-0.7-0.7-1c-0.2-0.1-0.8-0.2-1.7-0.2v-0.6h8.4v0.6
			c-0.8,0.1-1.3,0.2-1.8,0.4c-0.4,0.2-1.4,1-3,2.2L470.1,491.6z"/>
		<path class="st0" d="M497.1,482.9l0.2,7.2h-0.7c-0.3-1.6-0.9-3-2-4.1c-1.2-1.2-2.5-1.9-4.1-1.9c-0.9,0-1.7,0.2-2.4,0.7
			c-0.7,0.5-1.1,1.3-1.1,2.1c0,1,0.6,1.9,1.8,2.7c0.5,0.3,1.6,1,3.4,1.9c2,1,3.5,1.9,4.4,2.7c1.3,1.3,2,2.8,2,4.5
			c0,2-0.8,3.6-2.3,4.8c-1.4,1.2-3.2,1.8-5.2,1.8c-1.2,0-2.6-0.3-4.2-1c-0.5-0.2-0.9-0.3-1.3-0.3c-0.7,0-1.2,0.4-1.6,1.3h-0.6v-8.1
			h0.6c0.4,1.9,1.1,3.6,2.3,4.8c1.3,1.5,2.9,2.2,4.7,2.2c1,0,1.9-0.3,2.7-0.8c0.8-0.6,1.2-1.4,1.2-2.4c0-0.5-0.1-1-0.4-1.5
			c-0.5-0.9-1.9-1.9-4.1-3c-1.6-0.8-2.7-1.4-3.5-1.9c-1.3-0.9-2.2-1.8-2.7-2.8c-0.4-0.8-0.7-1.7-0.7-2.8c0-1.8,0.7-3.3,2-4.5
			c1.3-1.1,2.8-1.7,4.7-1.7c1.2,0,2.5,0.3,3.8,1c0.7,0.3,1.2,0.5,1.5,0.5c0.3,0,0.5-0.1,0.6-0.2c0.2-0.2,0.3-0.6,0.5-1.2H497.1z"/>
		<path class="st0" d="M513.5,498.8h-7.6l-0.9,2.1c-0.3,0.7-0.4,1.2-0.4,1.7c0,0.6,0.2,1,0.7,1.3c0.3,0.2,1,0.3,2.1,0.4v0.6h-7.2
			v-0.6c0.9-0.1,1.7-0.7,2.4-1.6c0.3-0.4,0.8-1.3,1.4-2.6l7.7-17.2h0.3l7.8,17.6c0.7,1.7,1.3,2.7,1.8,3.2c0.3,0.3,0.9,0.5,1.5,0.6
			v0.6h-10.4v-0.6h0.4c1.4,0,2.1-0.4,2.1-1.1c0-0.2,0-0.4-0.1-0.6c0-0.1-0.2-0.5-0.5-1.2L513.5,498.8z M512.9,497.6l-3.2-7.4
			l-3.3,7.4H512.9z"/>
		<path class="st0" d="M541.2,495.2v6c0,0.9,0,1.5,0.1,1.7c0.1,0.6,0.4,1,1,1.3c0.3,0.1,1,0.2,2,0.2v0.6h-10.9v-0.6
			c1,0,1.7-0.1,2.1-0.3c0.4-0.3,0.7-0.7,0.8-1.3c0-0.2,0.1-0.7,0.1-1.6v-14c0-1.1-0.1-1.9-0.2-2.2c-0.3-0.6-1.2-1-2.8-1v-0.6h9.4
			c2.4,0,4.3,0.4,5.8,1.1c1.9,1,2.9,2.5,2.9,4.7c0,1.5-0.5,2.7-1.4,3.7c-0.9,0.9-2,1.6-3.5,1.9C545.3,495,543.6,495.2,541.2,495.2z
			 M541.2,484.6v9.3c0.2,0,0.5,0,0.8,0c2.7,0,4-1.5,4-4.7c0-3.1-1.4-4.6-4.2-4.6H541.2z"/>
		<path class="st0" d="M572.8,497.4l-0.8,7.6h-19.1v-0.6h0.7c0.8,0,1.4-0.2,1.8-0.5c0.4-0.4,0.5-1.2,0.5-2.6v-14.2
			c0-0.9,0-1.4,0-1.6c-0.1-0.5-0.4-0.9-0.8-1.2c-0.4-0.2-0.8-0.3-1.4-0.3h-0.7v-0.6h11.5v0.6h-0.9c-0.6,0-1.1,0.1-1.5,0.3
			c-0.3,0.1-0.5,0.4-0.7,0.8c-0.1,0.3-0.2,0.9-0.2,2v13.7c0,0.9,0,1.4,0,1.6c0.1,0.6,0.4,1,0.9,1.2c0.2,0.1,0.9,0.1,1.9,0.1h1.8
			c2.1,0,3.8-0.8,4.8-2.5c0.6-0.9,1.1-2.1,1.6-3.8H572.8z"/>
		<path class="st0" d="M587.4,498.8h-7.6l-0.9,2.1c-0.3,0.7-0.4,1.2-0.4,1.7c0,0.6,0.2,1,0.7,1.3c0.3,0.2,1,0.3,2.1,0.4v0.6h-7.2
			v-0.6c0.9-0.1,1.7-0.7,2.4-1.6c0.3-0.4,0.8-1.3,1.4-2.6l7.7-17.2h0.3l7.8,17.6c0.7,1.7,1.3,2.7,1.8,3.2c0.3,0.3,0.9,0.5,1.5,0.6
			v0.6h-10.4v-0.6h0.4c1.4,0,2.1-0.4,2.1-1.1c0-0.2,0-0.4-0.1-0.6c0-0.1-0.2-0.5-0.5-1.2L587.4,498.8z M586.9,497.6l-3.2-7.4
			l-3.3,7.4H586.9z"/>
		<path class="st0" d="M615.5,483.4v5.8h-0.6c-0.3-1.1-0.6-2-0.9-2.5c-0.4-0.8-1.1-1.4-1.9-1.8c-0.4-0.2-1.1-0.3-2.1-0.3h-1.6v16.6
			c0,0.9,0,1.4,0,1.6c0.1,0.5,0.4,0.9,0.8,1.2c0.3,0.2,0.8,0.3,1.5,0.3h0.7v0.6h-11.3v-0.6h0.7c0.6,0,1.1-0.1,1.5-0.3
			c0.3-0.1,0.5-0.4,0.7-0.8c0.1-0.3,0.2-0.9,0.2-2v-16.6h-1.6c-1.5,0-2.5,0.3-3.2,0.9c-0.9,0.8-1.5,2.1-1.7,3.7h-0.6v-5.8H615.5z"/>
		<path class="st0" d="M625.5,484.6v8.8h0.4c1.4,0,2.5-0.5,3.1-1.5c0.5-0.8,0.8-1.9,1-3.5h0.6v11.3h-0.6c-0.3-2.5-1-4-2.2-4.6
			c-0.5-0.3-1.3-0.4-2.3-0.4v6.1c0,1,0,1.5,0,1.6c0.1,0.6,0.3,1,0.7,1.3c0.3,0.2,0.7,0.3,1.3,0.3h1.3c3.9,0,6.4-1.9,7.4-5.6h0.6
			l-1,6.8h-18.6v-0.6h0.7c0.8,0,1.4-0.2,1.8-0.5c0.4-0.4,0.5-1.2,0.5-2.6v-14.2c0-1,0-1.6-0.1-1.8c-0.2-0.9-1-1.3-2.2-1.3h-0.7v-0.6
			h18v6.4h-0.6c-0.3-1.3-0.6-2.4-1.1-3c-0.6-0.8-1.4-1.4-2.6-1.8c-0.6-0.2-1.7-0.3-3.3-0.3H625.5z"/>
		<path class="st0" d="M653.6,482.9l0.2,7.2h-0.7c-0.3-1.6-0.9-3-2-4.1c-1.2-1.2-2.5-1.9-4.1-1.9c-0.9,0-1.7,0.2-2.4,0.7
			c-0.7,0.5-1.1,1.3-1.1,2.1c0,1,0.6,1.9,1.8,2.7c0.5,0.3,1.6,1,3.4,1.9c2,1,3.5,1.9,4.4,2.7c1.3,1.3,2,2.8,2,4.5
			c0,2-0.8,3.6-2.3,4.8c-1.4,1.2-3.2,1.8-5.2,1.8c-1.2,0-2.6-0.3-4.2-1c-0.5-0.2-0.9-0.3-1.3-0.3c-0.7,0-1.2,0.4-1.6,1.3H640v-8.1
			h0.6c0.4,1.9,1.1,3.6,2.3,4.8c1.3,1.5,2.9,2.2,4.7,2.2c1,0,1.9-0.3,2.7-0.8c0.8-0.6,1.2-1.4,1.2-2.4c0-0.5-0.1-1-0.4-1.5
			c-0.5-0.9-1.9-1.9-4.1-3c-1.6-0.8-2.7-1.4-3.5-1.9c-1.3-0.9-2.2-1.8-2.7-2.8c-0.4-0.8-0.7-1.7-0.7-2.8c0-1.8,0.7-3.3,2-4.5
			c1.3-1.1,2.8-1.7,4.7-1.7c1.2,0,2.5,0.3,3.8,1c0.7,0.3,1.2,0.5,1.5,0.5c0.3,0,0.5-0.1,0.6-0.2c0.2-0.2,0.3-0.6,0.5-1.2H653.6z"/>
	</g>
	<g>
		<g>
			<g>
				<path class="st0" d="M454.1,182.3c-15.2,53.4-64.3,92.6-122.5,92.6s-107.3-39.2-122.5-92.6h-8.3c6,22.8,18,43.8,35.1,60.9
					c25.5,25.5,59.5,39.6,95.6,39.6s70.1-14.1,95.6-39.6c17.1-17.1,29.1-38.1,35.1-60.9H454.1z M427.3,51.9
					c-7.9-7.9-16.7-14.8-26.1-20.4V41c25.4,16.6,44.4,42,52.9,71.8h8.3C456.4,90,444.4,69.1,427.3,51.9z M200.9,112.8h8.3
					c8.5-29.8,27.6-55.2,52.9-71.8v-9.5C252.7,37.2,244,44,236,51.9C218.9,69.1,206.9,90,200.9,112.8z"/>
			</g>
		</g>
		<g>
			<g>
				<path class="st0" d="M395.2,84c-17-17-39.5-26.3-63.6-26.3S285.1,67,268.1,84c-5.2,5.2-9.7,11-13.5,17.2h6.3
					C276,78.2,302.1,63,331.6,63s55.6,15.2,70.7,38.2h6.3C404.9,95,400.4,89.3,395.2,84z M401.7,195c-15.2,22.4-40.9,37.1-70,37.1
					s-54.8-14.7-70-37.1h-6.4c3.6,5.8,7.9,11.2,12.8,16.1c17,17,39.5,26.3,63.6,26.3s46.6-9.4,63.6-26.3c4.9-4.9,9.2-10.3,12.8-16.1
					H401.7z"/>
			</g>
		</g>
		<g>
			<g>
				<g>
					<g>
						<path class="st0" d="M453.9,116.1v9.4h35.4h14.4c13.2,0,22.6-9.4,22.6-9.4H453.9z"/>
					</g>
				</g>
				<g>
					<g>
						<path class="st0" d="M453.9,129.5v9.4h27.1h14.4c13.2,0,22.6-9.4,22.6-9.4H453.9z"/>
					</g>
				</g>
				<g>
					<g>
						<path class="st0" d="M453.9,142.9v9.4h18.7H487c13.2,0,22.6-9.4,22.6-9.4H453.9z"/>
					</g>
				</g>
				<g>
					<g>
						<path class="st0" d="M453.9,156.3v9.4h10.3h14.4c13.2,0,22.6-9.4,22.6-9.4H453.9z"/>
					</g>
				</g>
			</g>
			<g>
				<g>
					<path class="st0" d="M210.3,116.1v9.4h-35.4h-14.4c-13.2,0-22.6-9.4-22.6-9.4H210.3z"/>
				</g>
			</g>
			<g>
				<g>
					<path class="st0" d="M210.3,129.5v9.4h-27.1h-14.4c-13.2,0-22.6-9.4-22.6-9.4H210.3z"/>
				</g>
			</g>
			<g>
				<g>
					<path class="st0" d="M210.3,142.9v9.4h-18.7h-14.4c-13.2,0-22.6-9.4-22.6-9.4H210.3z"/>
				</g>
			</g>
			<g>
				<g>
					<path class="st0" d="M210.3,156.7v9.4h-10.3h-14.4c-13.2,0-22.6-9.4-22.6-9.4H210.3z"/>
				</g>
			</g>
		</g>
		<g>
			<g>
				<path class="st0" d="M249.3,101.2c1.7-3.1,3.6-6,5.7-8.8c0.4-0.6,0.9-1.2,1.4-1.8C273.6,67.8,300.9,53,331.6,53
					s58.1,14.7,75.4,37.5c0.5,0.6,0.9,1.2,1.4,1.8c2,2.8,3.9,5.8,5.7,8.8h8.6h9.8c0,0-3.5-4.8-12.6-5.1c-1.3-2.2-2.6-4.3-4.1-6.4
					c-3.5-5.1-7.5-9.9-12-14.3c-19.3-19.3-44.9-29.9-72.2-29.9c-27.3,0-52.9,10.6-72.2,29.9c-4.5,4.5-8.5,9.3-12,14.3
					c-1.4,2.1-2.8,4.2-4.1,6.4c-9.2,0.2-12.6,5.1-12.6,5.1h9.8H249.3z"/>
			</g>
			<g>
				<path class="st0" d="M414,193.9c-1.7,3.1-3.6,6-5.7,8.8c-0.4,0.6-0.9,1.2-1.4,1.8c-17.3,22.8-44.6,37.5-75.4,37.5
					s-58.1-14.7-75.4-37.5c-0.5-0.6-0.9-1.2-1.4-1.8c-2-2.8-3.9-5.8-5.7-8.8h-8.6h-9.8c0,0,3.5,4.8,12.6,5.1
					c1.3,2.2,2.6,4.3,4.1,6.4c3.5,5.1,7.5,9.9,12,14.3c19.3,19.3,44.9,29.9,72.2,29.9c27.3,0,52.9-10.6,72.2-29.9
					c4.5-4.5,8.5-9.3,12-14.3c1.4-2.1,2.8-4.2,4.1-6.4c9.2-0.2,12.6-5.1,12.6-5.1h-9.8H414z"/>
			</g>
		</g>
		<g>
			<g>
				<g>
					<linearGradient id="SVGID_1_" gradientUnits="userSpaceOnUse" x1="332.0652" y1="68.6261" x2="332.0652" y2="215.9808">
						<stop  offset="0" style="stop-color:#79582D"/>
						<stop  offset="0.5587" style="stop-color:#FDEBA3"/>
						<stop  offset="1" style="stop-color:#926B2E"/>
					</linearGradient>
					<path class="st1" d="M435,104.4H229.1c-8.1,0-14.8,6.6-14.8,14.8v56.7c0,8.1,6.6,14.8,14.8,14.8H435c8.1,0,14.8-6.6,14.8-14.8
						v-56.7C449.8,111.1,443.2,104.4,435,104.4z M446.5,175.9c0,6.3-5.1,11.4-11.4,11.4H229.1c-6.3,0-11.4-5.1-11.4-11.4v-56.7
						c0-6.3,5.1-11.4,11.4-11.4H435c6.3,0,11.4,5.1,11.4,11.4V175.9z"/>
				</g>
			</g>
			<g>
				<g>
					
						<linearGradient id="SVGID_00000146497954636370350110000014220977789822141830_" gradientUnits="userSpaceOnUse" x1="287.1353" y1="68.6261" x2="287.1353" y2="215.9808">
						<stop  offset="0" style="stop-color:#79582D"/>
						<stop  offset="0.5587" style="stop-color:#FDEBA3"/>
						<stop  offset="1" style="stop-color:#926B2E"/>
					</linearGradient>
					<path style="fill:url(#SVGID_00000146497954636370350110000014220977789822141830_);" d="M229.1,110.3h125v74.6h-125
						c-4.9,0-8.9-4-8.9-8.9v-56.7C220.2,114.3,224.2,110.3,229.1,110.3z"/>
				</g>
				<g>
					
						<linearGradient id="SVGID_00000037691765061798091220000007088659157770260864_" gradientUnits="userSpaceOnUse" x1="378.8091" y1="68.6261" x2="378.8091" y2="215.9808">
						<stop  offset="0" style="stop-color:#79582D"/>
						<stop  offset="0.5587" style="stop-color:#FDEBA3"/>
						<stop  offset="1" style="stop-color:#926B2E"/>
					</linearGradient>
					
						<rect x="356.3" y="110.3" style="fill:url(#SVGID_00000037691765061798091220000007088659157770260864_);" width="45.1" height="74.6"/>
				</g>
				<g>
					
						<linearGradient id="SVGID_00000132062289312495584940000003378704785792152707_" gradientUnits="userSpaceOnUse" x1="423.7411" y1="68.6261" x2="423.7411" y2="215.9808">
						<stop  offset="0" style="stop-color:#79582D"/>
						<stop  offset="0.5587" style="stop-color:#FDEBA3"/>
						<stop  offset="1" style="stop-color:#926B2E"/>
					</linearGradient>
					<path style="fill:url(#SVGID_00000132062289312495584940000003378704785792152707_);" d="M443.9,119.2v56.7
						c0,4.9-4,8.9-8.9,8.9h-31.5v-74.6H435C440,110.3,443.9,114.3,443.9,119.2z"/>
				</g>
			</g>
		</g>
		<g>
			<g>
				<path class="st0" d="M187.5,108.9c-0.4,1.3-0.7,2.6-1,3.9h9.1c0.3-1.3,0.7-2.6,1.1-3.9c10.3-35.4,34.1-65.1,65.4-83V15.8
					c-13.1,6.9-25.2,15.8-36,26.6C207.3,61.2,194.2,84,187.5,108.9z"/>
			</g>
			<g>
				<path class="st0" d="M199.5,195.8c-1.2-3.2-2.2-6.5-3.2-9.9c-0.5-1.7-0.9-3.3-1.3-5c-0.2-0.6-0.3-1.3-0.4-1.9h16.2v-8.6h-17.9
					h-2.1H184c0,0.2,0.1,0.4,0.1,0.6c0.5,3.3,1.1,6.6,1.9,9.9c0.4,1.7,0.8,3.3,1.2,5c0.9,3.3,1.8,6.6,2.9,9.9
					c3.4,10.1,7.9,19.7,13.4,28.9c3.7,6.2,10.4,10,17.6,10c-4.6-5.8-8.7-12-12.3-18.5C205.2,209.7,202.1,202.9,199.5,195.8z"/>
			</g>
			<g>
				<path class="st0" d="M472.5,170.4h-2.1h-16.5v8.6h14.8c-0.1,0.6-0.3,1.3-0.4,1.9c-0.4,1.7-0.8,3.4-1.3,5c-0.9,3.3-2,6.6-3.2,9.9
					c-5.1,14.1-12.5,27.2-21.6,38.8c3.6,0,7.1-0.9,10.1-2.7c3-1.7,5.6-4.2,7.5-7.3c5.5-9.1,10-18.8,13.4-28.9
					c1.1-3.2,2.1-6.5,2.9-9.9c0.4-1.7,0.8-3.3,1.2-5c0.7-3.3,1.4-6.5,1.9-9.9c0-0.2,0.1-0.4,0.1-0.6H472.5z"/>
			</g>
			<g>
				<path class="st0" d="M467.7,112.8h9.1c-0.3-1.3-0.6-2.6-1-3.9c-6.7-24.9-19.8-47.8-38.6-66.5c-10.8-10.8-22.9-19.7-36-26.6v10.1
					c31.4,17.9,55.2,47.6,65.4,83C467,110.2,467.4,111.5,467.7,112.8z"/>
			</g>
		</g>
		<g>
			<g>
				<path class="st0" d="M293.8,16.5l14.3,17.9c2,2.5,3.8,4.2,5.2,5.1c1,0.6,2.1,0.9,3.4,1v1.1h-21.1v-1.1c0.9-0.1,1.6-0.2,2-0.3
					c0.8-0.3,1.2-0.7,1.2-1.4c0-0.8-0.9-2.4-2.8-4.7l-9.3-11.7l-1.5,1.3v11.1c0,1.7,0,2.7,0.1,3c0.2,1,0.7,1.8,1.6,2.3
					c0.6,0.4,1.7,0.5,3.3,0.5v1.1h-20.5v-1.1h1.3c1.6,0,2.7-0.3,3.4-1c0.7-0.7,1-2.3,1-4.8V7.9c0-1.7,0-2.7-0.1-3
					c-0.2-1-0.7-1.8-1.6-2.3C273,2.2,272.1,2,271,2h-1.3V0.9h20.2V2c-1.4,0-2.4,0.2-3.1,0.6c-0.5,0.3-0.9,0.7-1.2,1.4
					c-0.2,0.5-0.4,1.8-0.4,3.8v12.6l15.1-12.2c2.1-1.7,3.1-3.1,3.1-4.1c0-0.8-0.4-1.4-1.3-1.8c-0.4-0.2-1.4-0.3-3.3-0.4V0.9h15.8V2
					c-1.4,0.1-2.5,0.4-3.3,0.8c-0.8,0.4-2.7,1.8-5.6,4.1L293.8,16.5z"/>
			</g>
			<g>
				<path class="st0" d="M344.8,0l0.3,13.5h-1.2c-0.5-3-1.8-5.6-3.9-7.8c-2.2-2.3-4.8-3.5-7.8-3.5c-1.7,0-3.2,0.4-4.5,1.3
					c-1.4,1-2.1,2.4-2.1,4c0,1.8,1.1,3.5,3.4,5.2c0.9,0.6,3.1,1.8,6.5,3.5c3.8,1.9,6.6,3.6,8.2,5.2c2.5,2.4,3.8,5.2,3.8,8.6
					c0,3.7-1.4,6.7-4.3,9.1c-2.7,2.2-6,3.3-9.7,3.3c-2.3,0-4.9-0.6-7.9-1.9c-0.9-0.4-1.7-0.6-2.4-0.6c-1.3,0-2.3,0.8-3.1,2.4h-1.1
					V27.1h1.1c0.7,3.7,2.2,6.7,4.3,9.1c2.5,2.8,5.4,4.1,8.9,4.2c1.9,0,3.6-0.5,5-1.6c1.5-1.1,2.3-2.6,2.3-4.5c0-0.9-0.2-1.8-0.8-2.8
					c-1-1.7-3.6-3.6-7.8-5.7c-3-1.5-5.2-2.7-6.6-3.6c-2.4-1.6-4.1-3.4-5.1-5.3c-0.8-1.6-1.3-3.3-1.3-5.2c0-3.4,1.2-6.2,3.7-8.5
					c2.4-2.1,5.3-3.2,8.8-3.2c2.3,0,4.7,0.6,7.2,1.8c1.3,0.6,2.2,0.9,2.8,1c0.5,0,0.9-0.1,1.2-0.4c0.3-0.3,0.6-1.1,0.9-2.3H344.8z"
					/>
			</g>
			<g>
				<path class="st0" d="M375.5,30h-14.3l-1.7,4c-0.5,1.3-0.8,2.3-0.8,3.3c0,1.1,0.4,2,1.4,2.5c0.5,0.3,1.8,0.5,4,0.7v1.1h-13.5
					v-1.1c1.8-0.3,3.3-1.2,4.5-2.9c0.6-0.8,1.4-2.5,2.6-5l14.5-32.4h0.6l14.6,33.3c1.4,3.2,2.5,5.1,3.4,6c0.7,0.6,1.6,1,2.9,1.1v1.1
					H374v-1.1h0.8c2.6,0,3.9-0.7,4-2c0-0.4,0-0.8-0.2-1.1c0-0.1-0.3-0.9-0.9-2.2L375.5,30z M374.5,27.7l-6-14l-6.2,14H374.5z"/>
			</g>
		</g>
	</g>
	<g>
		<path class="st0" d="M611.4,456.3c-7.6,0-11.3-5-11.3-15c0-7.6,1.5-15.4,4.6-23.2c0.7-1.7,1.3-2.6,1.5-2.6s0.4,0.2,0.4,0.6
			c0,0.6-0.2,1.5-0.6,2.6c-2.2,7.8-3.3,13.7-3.3,17.6c0,3.2,0.9,5.4,2.8,7c1.5,1.5,3.3,2,5.6,2c4.8,0,14.1-4.5,27.8-13.4
			c12.4-8,19.5-13,21.5-14.8c0.7-0.7,1.1-1.5,1.1-2c0-1.1-0.9-2.2-2.8-3.7c-2.4-1.9-6.1-3.9-11.3-6.3c-5.6-2.8-9.8-5-12.6-6.9
			c-4.8-3.3-9.1-7.4-12.8-12.4c-0.6-0.7-1.5-1.5-3-2.2c-0.7-0.6-1.3-1.7-1.3-3.3v-6.5c0-0.7,0.2-1.1,0.2-1.3
			c0.4-0.2,0.9-0.2,1.9,0.4l11.1,5.4c0.6,0.2,0.9,0.4,1.3,0.6c1.7,1.1,2.4,1.9,1.9,2.4c-0.4,0.6-2.6,0.9-6.1,0.6
			c4.1,4.1,9.5,7.8,16.1,10.9c8.3,3.9,13.2,6.3,14.7,7.4c3.5,2.6,5.4,6.9,5.4,12.8c0,1.3-0.2,2.6-0.4,3.9c-0.6,3.3-1.1,5.7-1.9,7
			c-0.6,1.1-1.9,2.4-3.5,3.9c-3.3,3.2-10.2,8.2-21,15.2C624.1,451.8,615.4,456.3,611.4,456.3"/>
		<g>
			<path class="st0" d="M602.3,371.3c3.5,0.9,5.2,0.9,5.2,0c0-0.6-0.4-1.3-1.5-2.2l-8.5-7.4c-0.4-0.4-0.9-0.7-1.1-0.7
				c-0.4,0-0.6,0.6-0.7,1.5l-1.1,8.5c0,0.7,0.2,1.1,0.9,1.5c0.9,0.2,1.3,0.7,1.5,1.5c0.7,2.8,2.6,6.7,5.7,11.9
				c2.8,4.8,4.3,7.8,4.3,8.9c-0.9,1.7-3.5,3.3-7.2,5c-0.7,0.2-1.1,0.4-1.3,0.4c-1.9-3.9-3.9-7-6.3-9.5c-2.6-3-5-4.3-7.4-4.3
				c-2.8,0-5.6,1.5-8.3,4.6c-3,3.5-4.3,7.4-4.3,12.1c0,5.7,4.3,8.7,12.8,8.7c4.1,0,7-0.4,9.3-1.1c0.6,1.1,0.7,2.4,0.7,3.7
				c0,4.3-9.8,11.9-29.7,22.6c-7,3.7-15.8,7.8-26.3,12.2c-15,6.5-23.4,10-24.7,10.8c-4.1,1.7-5.9,2.6-5.9,3c0,0,0.2,0.2,0.4,0.2
				c0.7,0,2.6-0.4,5.4-0.7c2.8-0.4,9.5-1.9,20-4.6c10.2-2.4,15.4-3.7,15.8-3.7c1.9,0,7.8-2.8,18-8.7c11.7-6.5,19.7-12.4,24.3-17.6
				c2.2-2.6,4.1-5.9,5.4-10.2c0.9-3,1.5-5.7,1.5-7.8l0.7-0.2c7-3.2,10.8-10,10.8-20.6C610.4,385.8,607.6,379.8,602.3,371.3z
				 M584.3,401.7c-4.5,0-6.7-1.1-6.7-3.2c0-1.9,1.5-2.6,4.8-2.6c2,0,4.5,1.7,7,5.2C587.6,401.5,585.8,401.7,584.3,401.7z"/>
		</g>
		<path class="st0" d="M541.8,323.9c0-3.3-0.6-6.3-1.5-8.5c0-1.5,0.9-4.5,3-9.1c0.4-0.9,0.9-0.9,1.5,0.2c0.6,1.1,1.9,4.6,3.9,10.2
			c2.2,5.7,3.5,9.3,3.9,10.6c0.4,1.1,0.4,1.9,0.4,2.4c0,1.5-1.5,0.6-4.6-3c-0.2-0.6-0.4-0.2-0.4,0.7c0,0.2,0.9,13.7,2.8,40.4
			c2,26.5,3,41.2,3,44c0,8.5-1.3,16-3.9,22.3c-0.6,1.3-0.9,2.2-1.3,3c-0.6,0.7-0.7,0.9-0.9,0.2c-0.2-0.6,0-1.9,0.2-4.1
			c0.4-2.8,0.6-6.1,0.6-10c0-3.5-1.1-20-3.3-49.9C542.9,343.4,541.8,327.1,541.8,323.9"/>
		<path class="st0" d="M533.8,420.6c0,6.7-1.7,11.9-4.6,15.4c-4.8,5.6-11.9,10.9-21.1,16.1c-11.7,6.5-22.6,9.8-32.8,9.8
			c-13.5,0-23-6.7-28-20c-1.1-2.6-1.5-5.9-1.5-10c0-2.8,0.2-5.4,0.6-8.2c0.7-4.1,1.5-7.6,2.8-10.8c0.4-0.9,0.7-1.3,1.1-1.3
			c0.4,0,0.4,0.6,0.2,1.9c-0.6,1.9-0.9,3.7-1.3,5.6c-0.7,3.3-1.1,5.7-1.1,7.4c0,5.6,1.9,10.6,5.4,15.2c5,6.1,12.4,9.3,21.9,9.3
			c8.3,0,17.1-2,26.5-5.9c7.6-3.2,14.3-7,20.4-11.7c5.4-4.3,8.2-7.2,8.2-9.1c0-0.2-1.3-2.6-3.5-7c-2.6-5.2-4.6-10.2-5.9-15.2
			c-0.6-1.7-1.1-2.8-1.9-3.3c-0.6-0.6-0.9-1.1-0.9-1.9c0-0.6,0.4-3.2,1.5-8c0.2-0.9,0.4-1.3,0.6-1.3c0.4,0,0.7,0.2,1.1,0.6
			c1.5,1.5,4.5,4.6,8.9,9.1c0.7,0.7,1.1,1.3,1.1,1.7c0,0.6-0.4,0.7-1.3,0.7c-0.9,0-2.2-0.2-4.3-0.7c0.2,0.6,1.7,3.7,4.6,9.5
			C532.5,413.1,533.8,417.2,533.8,420.6"/>
		<path class="st0" d="M455.7,324.1c0-3.5-0.6-6.5-1.7-8.7c0-1.3,0.9-4.5,3-8.9c0.4-1.1,0.9-1.1,1.5,0c0.6,1.3,1.9,4.6,3.9,10.2
			c2.2,5.7,3.5,9.3,3.9,10.6c0.4,1.1,0.6,1.9,0.6,2.4c0,1.5-1.7,0.6-4.8-3c-0.2-0.4-0.4-0.2-0.4,0.7c0,0.4,0.9,12.6,3,36.9
			c1.9,24.3,3,37.7,3,40.4c0,8.5-1.5,16-4.1,22.3c-0.6,1.3-0.9,2.2-1.3,3c-0.6,0.7-0.7,0.9-0.9,0.4c-0.2-0.7,0-2,0.2-4.1
			c0.4-3,0.6-6.3,0.6-10.2c0-3.3-1.1-18.9-3.2-46.4C456.7,342.3,455.7,327.1,455.7,324.1"/>
		<path class="st0" d="M178.6,323c0-3.5-0.6-6.5-1.7-8.7c0-1.3,0.9-4.5,3-8.9c0.4-1.1,0.9-1.1,1.5,0c0.6,1.3,1.9,4.6,3.9,10.2
			c2.2,5.7,3.5,9.3,3.9,10.6c0.4,1.1,0.6,1.9,0.6,2.4c0,1.5-1.7,0.6-4.8-3c-0.2-0.4-0.4-0.2-0.4,0.7c0,0.4,0.9,12.6,3,36.9
			c1.9,24.3,3,37.7,3,40.4c0,8.5-1.5,16-4.1,22.3c-0.6,1.3-0.9,2.2-1.3,3c-0.6,0.7-0.7,0.9-0.9,0.4c-0.2-0.7,0-2,0.2-4.1
			c0.4-3,0.6-6.3,0.6-10.2c0-3.3-1.1-18.9-3.2-46.4C179.5,341.2,178.6,326,178.6,323"/>
		<g>
			<path class="st0" d="M433.9,323.7c0-0.9,0.2-1.3,0.4-0.7c3.2,3.5,4.6,4.6,4.6,3c0-0.6-0.2-1.3-0.6-2.2c-0.4-1.5-1.7-5-3.7-10.9
				c-2.2-5.4-3.5-8.9-4.1-10.2c-0.2-0.6-0.6-0.7-0.7-0.7c-0.2,0-0.4,0.2-0.6,0.7c-2,4.8-3.2,7.8-3.2,9.1c1.1,2.2,1.9,5.2,1.9,8.5
				c0,3.9,0.9,18.7,2.8,44.9c1.9,26,2.8,40.6,2.8,43.6c0,5-0.6,8-1.5,8.7c-3.3,2.8-6.6,4.1-9.9,4.1c-2.4,0-4.2-0.6-5.5-1.5
				c-1.7-1.5-3.2-4.3-3.9-8.5c-0.9-4.1-1.7-15.2-2.2-33.4c-0.6-20-1.1-38.1-1.5-41.9c-1.3-11.9-3.2-21.7-5.4-29.5
				c-0.4-0.7-0.6-1.1-0.7-1.1s-0.6,0.4-0.7,1.1c-0.4,0.7-0.9,3.9-2,9.5c1.1,6.7,2.2,13.7,3,21c1.5,15.2,2.2,38.1,2.2,56.5
				c0,5.2-3.5,9.3-10.6,12.2c-0.7,0.2-1.1,0.2-1.3,0.2c-1.9-3.7-3.9-6.9-6.1-9.5c-2.6-2.8-5-4.1-7.2-4.1c-3,0-5.7,1.5-8.5,4.6
				c-2.8,3.5-4.1,7.4-4.1,11.9c0,5.9,4.3,8.9,12.6,8.9c4.1,0,7.2-0.4,9.3-1.1c0.6,1.3,0.7,2.4,0.7,3.5c0,1.7-2.6,4.8-7.6,9.6
				c-5.6,5.4-11.5,10-17.6,13.7c-7.6,4.5-13.9,6.9-19.3,6.9c-6.1,0-10.6-2-13.4-5.8c-1.9-2.6-2.8-5.9-2.8-9.6c0-4.1,0.9-10,3.2-17.8
				c0.4-1.1,0.6-1.9,0.6-2.6c0-0.2-0.2-0.4-0.4-0.4s-0.7,0.7-1.5,2.6c-3.2,7.8-4.6,15.6-4.6,23.2c0,5.9,1.3,10.8,4.3,14.7
				c3.3,4.5,7.8,6.7,13.7,6.7c7.2,0,15.4-3.7,25-10.9c6.3-4.8,12.2-10.4,17.6-16.7c2.4-2.6,4.1-6.1,5.4-10.2
				c1.1-3.2,1.7-5.7,1.7-7.8l0.4-0.4v0.2c6.3-2.8,10.4-8.2,12.2-16.1c0,13.5,1.1,22.4,3.5,26.5c2.4,4,6.2,6.3,11.6,6.3v0
				c0,0,0,0,0.1,0c0,0,0.1,0,0.1,0v0c4.2-0.1,7.9-2.6,11-7.6c3.7-6.1,5.7-14.3,5.7-24.9c0-3.7-0.9-17.2-2.6-40.6
				C434.6,335.8,433.9,323.9,433.9,323.7z M379.3,407.9c-4.5,0-6.5-1.1-6.5-3.2c0-1.7,1.5-2.4,4.6-2.4c2.2,0,4.5,1.5,7,4.8
				C382.7,407.6,380.8,407.9,379.3,407.9z"/>
		</g>
		<g>
			<path class="st0" d="M362.1,408.3c-1.9,0-6.7-0.6-14.1-1.9c-2.2-0.2-8.7-1.9-19.5-5c-9.5-2.6-15.8-3.9-18.4-3.9
				c-6.1,0-10.8,2.4-13.7,7.2c-1.7,2.6-2.4,6.5-2.4,12.1c0,2.4,0.6,5.8,1.7,9.9c-1.9-1.2-3.7-2.7-5.4-4.5
				c-3.9-3.7-6.3-14.1-7.2-31.2c-0.2-9.3-0.6-18.5-0.7-27.8c-0.6-16.3-1.1-26.9-1.7-31.5c-1.1-10.4-2.8-17.6-4.8-21.9
				c-0.4-0.7-0.7-1.1-0.9-1.1s-0.6,0.6-0.9,1.3c-1.7,4.3-2.4,7-2.4,8.5c1.9,4.6,3.2,11.1,4.1,19.5c0.4,4.5,1.1,22.3,2.2,53.8
				c0.7,17.8,2,28.9,4.1,33.2c1.9,3.9,4.3,7,7.4,9.5c2.2,1.7,5.6,3.3,9.8,5.2c-0.2,0-0.2,0.2-0.4,0.2c0.4,2.6,0.7,3.9,1.1,3.9
				c0.7,0,1.3-1.3,1.9-4.1c5.9,0,15.2-3.3,27.6-10c9.5-5,16-8.2,19.5-9.5c3-1.1,6.5-1.7,10.2-1.7c0.6,0,1.1-0.4,1.5-1.3l2.8-7
				c0.2-0.4,0.2-0.7,0.2-1.1C363.5,408.5,363.2,408.3,362.1,408.3z M325.3,422.4c-9.5,4.3-16.3,6.3-20.8,6.3c-1.1,0-2,0-3-0.2
				c-2-6.1-3.7-10.8-5-13.5c0-1.7,1.1-3.2,3-4.8c2-1.9,4.6-2.8,7.4-2.8c5.4,0,16.5,2.8,33.6,8.2L325.3,422.4z"/>
		</g>
		<path class="st0" d="M200.9,437.6c11.7,0,24.9-2.4,39.9-7.2c12.1-3.7,20-7,23.6-9.8c0.4-0.2,0.4-0.4,0.4-0.9
			c0-1.5-2.2-5.2-6.9-10.9c-0.7-0.9-1.1-2.2-0.7-3.3c0.6-2.6,1.3-4.6,2-6.5c0.6-1.3,1.1-2,1.3-2c0.4,0,0.9,0.6,2,1.7
			c1.1,1.3,2.4,3.2,3.7,5.9c1.9,3.5,2.8,6.5,2.8,8.9c0,8.5-2.8,14.7-8.2,18.4c-3.5,2.6-11.7,5.9-23.9,9.6c-15.4,4.8-28.7,7-40.4,7
			c-11.3,0-19.5-3-24.5-8.9c-3.5-4.3-5.2-9.5-5.2-16c0-6.7,1.5-13,4.8-18.9c0.9-1.9,1.7-2.8,2-2.8c0.2,0,0.2,0.2,0.2,0.6
			c0,0.6-0.2,1.7-0.7,3.2c-0.7,2-1.7,4.1-2.4,6.3c-0.9,2.6-1.3,5.4-1.3,8.5c0,3.9,1.9,7.2,5.7,10.4
			C180.7,435.2,189.2,437.6,200.9,437.6"/>
		<g>
			<path class="st0" d="M164.6,383.7c-1.7-2.6-3.9-3.9-6.7-3.9c-3.7,0-7.3,0.8-10.7,2.2c-2.4-7.1-3.1-15.4-4.1-38.9
				c-0.6-11.9-0.7-17.6-0.7-17.2c0-0.9,0.2-1.1,0.4-0.7c3.2,3.7,4.8,4.6,4.8,3c0-0.4-0.2-1.3-0.4-2.2c-0.6-1.3-1.9-5-3.9-10.8
				c-2.2-5.4-3.5-8.9-4.1-10.2c-0.4-0.6-0.6-0.7-0.7-0.7c-0.4,0-0.6,0.2-0.7,0.7c-2,4.8-3,7.8-3,9.1c1.1,2.2,1.7,5.2,1.7,8.5
				c0,2.4,0.2,8.9,0.7,19.5c1.1,21.6,1.7,30.9,4.6,42.4l-0.5,0.2c-5,2.4-8.7,4.3-10.9,5.4v0c-9.6,4.1-14.4,7.2-14.4,9.4
				c0,0.2,0,0.4,0,0.6c-0.2-0.2-0.6-0.4-0.9-0.4c-0.6,0-1.3,0.6-2,1.7c-2.6,4.6-4.5,7.6-5.4,8.7c-4.1,4.8-8.5,7.2-13.5,7.2
				c-4.4,0-8.7-1.7-12.2-4.8c-3.7-3.3-7.3-5-10.6-5v0c0,0,0,0-0.1,0c0,0,0,0-0.1,0v0c-9.2,0.1-19.8,7.1-32,20.8
				c-4.6,5.6-9.5,11.3-14.3,16.9c-5.7,5.9-10.6,8.9-14.3,8.9c-2.6,0-4.6-0.9-5.9-2.8c-1.5-1.7-2-3.9-2-6.9c0-3.7,1.1-8.7,3.5-15.2
				s3.7-10.2,3.7-11.3c0-0.2-0.2-0.4-0.4-0.4c-0.2,0-0.7,0.6-1.3,1.7C2.6,429.9,0,438.6,0,445.3c0,4.8,1.3,8.9,4.1,12.4
				c2.8,3.2,5.9,4.8,9.5,4.8c3.2,0,6.5-1.5,9.6-4.5c2.2-1.9,5.4-5.4,9.6-10.8c5-6.1,8.9-10.8,12.1-13.9c9.8-10,18.5-15,26.3-15
				c2,0,4.1,0.8,6.1,2.4c3.5,3,5.6,4.5,6.3,4.8c3,1.7,6.5,2.6,10.5,2.6v0c0,0,0,0,0,0c0,0,0,0,0,0v0c7.6,0,13.5-5.6,17.9-16.7
				c1.1,4.5,3.7,8.5,7.6,11.7c3.5,3.2,6.7,4.6,9.5,4.6c2.6,0,5-1.5,7.2-4.6c1.9-2.6,2.8-5.4,2.8-7.8c0-6.1-2.8-11.3-8.7-15.6v0
				c7.4-3.1,11.8-5,13.3-5.9c1.3,2.8,3.2,5.4,5.6,7.6c3.2,3,6.3,4.5,9.6,4.5c2.4,0,4.5-1.1,5.9-3.3c1.7-2.4,2.4-5.2,2.4-8.7
				C167.2,389.6,166.3,386.3,164.6,383.7z M131,414.3c0.4,0.7,0.7,1.3,0.7,1.7c0,0.6-0.6,0.7-1.9,0.7c-3.5,0-7.2-2.2-10.8-6.9
				c-0.4-0.4-0.6-0.7-0.6-0.9c0-0.6,0.6-0.6,1.9-0.4C125.4,409.3,128.9,411.3,131,414.3z M159.4,395c-3.7,0-6.5-1.3-8.2-4.1
				c3.3-0.6,5.7-0.6,7.2,0c2,0.9,3,1.9,3,3C161.5,394.6,160.7,395,159.4,395z"/>
		</g>
		<path class="st0" d="M71.8,442.8l2.8-5.7c0.2-0.4,0.4-0.6,0.7-0.6c0.4,0,1.9,0.9,4.6,2.8c2.8,1.9,4.1,3,4.1,3.3
			c0,1.1-1.1,3.7-3.5,7.6c-0.4,0.6-0.7,0.7-0.9,0.4c-2.4-1.7-5.2-3.5-8.2-5.6c-0.9,2.4-2,4.3-3,5.9c-0.4,0.4-0.6,0.6-0.9,0.4
			c-2.8-2.2-5.6-4.1-8.3-5.9c-0.2,0-0.2-0.2,0-0.6l3.3-7.2c0.4-0.4,0.6-0.6,0.7-0.6c0.4,0,1.7,0.7,4.1,2.4
			C69.6,441,71,442.1,71.8,442.8"/>
		<path class="st0" d="M500.2,413.3c-0.2,0-0.2-0.4,0-0.6l3.3-7.2c0.4-0.4,0.6-0.6,0.7-0.6c0.4,0,1.9,0.9,4.6,2.8
			c2.8,1.9,4.3,3,4.3,3.3c0,1.1-1.3,3.7-3.7,7.6c-0.4,0.6-0.6,0.7-0.9,0.6C505.8,417,503,415.2,500.2,413.3"/>
		<path class="st0" d="M25.7,358.7l2.8-5.7c0.2-0.4,0.4-0.6,0.7-0.6c0.4,0,1.9,0.9,4.6,2.8s4.1,3,4.1,3.3c0,1.1-1.1,3.7-3.5,7.6
			c-0.4,0.6-0.7,0.7-0.9,0.4c-2.4-1.7-5.2-3.5-8.2-5.6c-0.9,2.4-2,4.3-3,5.9c-0.4,0.4-0.6,0.6-0.9,0.4c-2.8-2.2-5.6-4.1-8.3-5.9
			c-0.2,0-0.2-0.2,0-0.6l3.3-7.2c0.4-0.4,0.6-0.6,0.7-0.6c0.4,0,1.7,0.7,4.1,2.4C23.5,356.9,25,358,25.7,358.7"/>
		<path class="st0" d="M44.7,396.1c-0.2,0-0.2-0.4,0-0.6l3.3-7.2c0.4-0.4,0.6-0.6,0.7-0.6c0.4,0,1.9,0.9,4.6,2.8s4.3,3,4.3,3.3
			c0,1.1-1.3,3.7-3.7,7.6c-0.4,0.6-0.6,0.7-0.9,0.6C50.3,399.8,47.5,398,44.7,396.1"/>
		<path class="st0" d="M582.2,455.1l2.8-5.7c0.2-0.4,0.4-0.6,0.7-0.6s1.9,0.9,4.6,2.8c2.8,1.9,4.1,3,4.1,3.3c0,1.1-1.1,3.7-3.5,7.6
			c-0.4,0.6-0.7,0.7-0.9,0.4c-2.4-1.7-5.2-3.5-8.2-5.6c-0.9,2.4-2,4.3-3,5.9c-0.4,0.4-0.6,0.6-0.9,0.4c-2.8-2.2-5.6-4.1-8.3-5.9
			c-0.2,0-0.2-0.2,0-0.6l3.3-7.2c0.4-0.4,0.6-0.6,0.7-0.6c0.4,0,1.7,0.7,4.1,2.4C580,453.3,581.5,454.4,582.2,455.1"/>
		<path class="st0" d="M229.9,412.4l2.8-5.7c0.2-0.4,0.4-0.6,0.7-0.6c0.4,0,1.9,0.9,4.6,2.8c2.8,1.9,4.1,3,4.1,3.3
			c0,1.1-1.1,3.7-3.5,7.6c-0.4,0.6-0.7,0.7-0.9,0.4c-2.4-1.7-5.2-3.5-8.2-5.6c-0.9,2.4-2,4.3-3,5.9c-0.4,0.4-0.6,0.6-0.9,0.4
			c-2.8-2.2-5.6-4.1-8.3-5.9c-0.2,0-0.2-0.2,0-0.6l3.3-7.2c0.4-0.4,0.6-0.6,0.7-0.6c0.4,0,1.7,0.7,4.1,2.4
			C227.6,410.6,229.1,411.7,229.9,412.4"/>
		<path class="st0" d="M633.4,454.7c10.4-4.4,20.5-9.8,31.3-13.2c-0.5,2.5-1.2,5.4-4.1,6c-10.6,3.9-20.8,8.9-31,13.8
			C630.4,459,630.6,455.7,633.4,454.7"/>
		<path class="st0" d="M228.3,456.9c10.4-4.4,20.5-9.8,31.3-13.2c-0.5,2.5-1.2,5.4-4.1,6c-10.6,3.9-20.8,8.9-31,13.8
			C225.3,461.2,225.5,457.9,228.3,456.9"/>
		<path class="st0" d="M576.1,341.9c4.8-0.9,9.7-1.5,14.5-0.6c1.6,0.2,1.5,2.2,1,3.3c-1.7,3.8-3.8,7.8-7.4,10.3
			c-3.1,1.6-6.8,1.8-10,3.1c2.5-4.1,8.1-4.8,11.2-8.5c-4.5-0.2-9.1,0-13.5,1.3C572.8,347.5,574.9,344.9,576.1,341.9"/>
		<path class="st0" d="M286,449.4c0.2-5.7,7.3-7,11.2-4.5c0.9,6.2-6.3,8.7-9.8,12.4c-2.1,1.6,0.3,4.1,2.3,4.1c8.2,1,15.1-4.3,21.2-9
			c-3.2,7.8-11.4,13.1-19.7,13.9c-2.7,0.3-7.3-0.9-6.5-4.5c0.6-5.9,5.1-9.9,9.7-12.9C291.6,447.7,288.6,448.3,286,449.4"/>
		<path class="st0" d="M220.1,315.4c4.2,0.4,5,5.8,3.4,9.1c-1.1-2.2-4.2-4.9-5.9-1.8c-2,5.9-0.7,12.4-2.3,18.5
			c3.6,0.2,5.8,3.4,8.3,5.5c2.3,1.8,0.3,4.7,0,7c-4.1,0.1-9.4-0.5-12.4,2.7c2.2,12,7.1,24.7,2.9,36.8c0.2-9.9-1.6-19.8-4.1-29.5
			c-1.6-5.9-0.2-14.8,7.2-15.5c-2.1-1.8-4.9-1.1-5.8,1.5c0.3-2.9,1.4-5.9,3.3-8.1c-2.1-4.3-3.6-9-6.8-12.7c-2.4-0.3-4.5-2.2-6.6-3.5
			c0.2-2.1-0.3-6.2,2.3-7c6.3,2.9,8.7,10.1,11.5,15.8C216,327.9,214.5,319.6,220.1,315.4"/>
		<path class="st0" d="M382.1,360.9c2.5,3.5,1.9,8.3,3.1,12.3c0.9,2.7,4.6,5.1,7.2,3.2c-1.9-5-5.6-10-3.6-15.5
			c2.2,6.4,7.7,13.8,3,20.4c-4.1,2.8-8-2.6-8.8-6.3c-0.7,3.2-1.6,7-4.9,8.4c-2.4,1-4.7-1.3-5.3-3.4c-1.5-3.9,0.3-8-0.8-12
			c-0.5-1.9,0.7-3.8,1.1-5.6c2.5,4.6-0.9,10.4,2.2,14.8c1.3,2,4.1,1.7,5.6,0C384.4,372,378.8,366,382.1,360.9"/>
		<path class="st0" d="M81.1,352.5c2.5,3.5,1.9,8.3,3.1,12.3c0.9,2.7,4.6,5.1,7.2,3.2c-1.9-5-5.6-10-3.6-15.5
			c2.2,6.4,7.7,13.8,3,20.4c-4.1,2.8-8-2.6-8.8-6.3c-0.7,3.2-1.6,7-4.9,8.4c-2.4,1-4.7-1.3-5.3-3.4c-1.5-3.9,0.3-8-0.8-12
			c-0.5-1.9,0.7-3.8,1.1-5.6c2.5,4.6-0.9,10.4,2.2,14.8c1.3,2,4.1,1.7,5.6,0C83.4,363.7,77.8,357.6,81.1,352.5"/>
		<path class="st0" d="M395.2,438.5c2.1-3.9,4.1-7.8,6.6-11.4c-1.9,7.7-8.7,14-8.2,22.3c0.2,2.5,1.8,6.6,5,5.5
			c2.6-1.6,2.5-5.1,4.3-7.3c-0.3,5-2.4,10-6,13.5c-2.3,1.9-5-1.1-5.7-3.3C388.9,451.2,393.1,444.7,395.2,438.5"/>
		<path class="st0" d="M149.2,431.6c1.5-0.8,3.2,0.2,3.9,1.6c2.1,3.8,3.4,9,0.2,12.6c-3.8-0.2-7.6-1.5-10.4-4.1
			c-1.6,1.3-1.9,4-3.5,5.5c-5.4,5.7-12.9,8.6-19.9,11.9c-7.9,2.5-16.3,3.1-24.3,5.2c0.1-1.6,2.2-1.5,3.3-2.1
			c12.9-4.4,26-8.6,37.6-15.9C142,442.9,143.2,435.1,149.2,431.6 M145.9,437.1L145.9,437.1c1.2,1.8,3.4,2.3,5.3,3
			C150.6,437.8,148.3,435,145.9,437.1"/>
		<g>
			<path class="st0" d="M236.6,352.1c0.3-1.3,0.7-2.4,1.4-3.4c0.2,0.1,0.4,0.1,0.5,0.2c1.1,1.1,2.1,2.2,2.8,3.5c1,1.9,1.2,3.9,1,5.9
				c-0.2,1.9-0.7,3.7-1.1,5.5c-0.1,0.3-0.1,0.5-0.2,0.8c-0.2,0.8,0,1.4,0.7,1.9c0.8,0.6,1.6,1.2,2.5,1.6c1.2,0.6,2.4,1.1,3.6,1.6
				c0.7,0.3,1.3,0.6,2,0.9c0.7,0.4,1.2,1.1,1.3,2c0.7,4.5-0.8,8.1-4.3,10.9c-1.3,1-2.7,1.7-4.3,1.9c-3.6,0.5-5.2-1.9-5.6-4.4
				c-0.1-0.5-0.1-0.9-0.1-1.4c0-2.1,0.2-4.2,0.7-6.2c0.6-2.7,1.1-5.4,2-8.1c0.4-1.2,0.6-2.5,0.8-3.8c0.4-2.9-0.3-5.5-2.2-7.7
				C237.6,353.3,237.1,352.8,236.6,352.1z M239.3,370.9c-0.1,0.1-0.2,0.3-0.3,0.4c-0.3,1.7-0.7,3.4-0.8,5.1c-0.2,2,1.6,3.7,3.6,3.8
				c2.9,0.1,5.2-1.2,7.1-3.3c0.1-0.1,0.1-0.3,0.1-0.4c-0.2-0.1-0.3-0.3-0.5-0.4c-0.4-0.2-0.8-0.4-1.3-0.6c-1.2-0.5-2.3-0.9-3.5-1.5
				c-1.5-0.7-3-1.6-4.1-2.8C239.7,371,239.5,370.9,239.3,370.9z"/>
		</g>
		<g>
			<path class="st0" d="M502.4,380.4c-0.7-1.1-1.4-1.6-2.1-2.1c-1.4-1.1-2.8-2.2-4.2-3.2c-2.1-1.4-2.8-3.3-2.1-5.7
				c0.4-1.6,0.8-3.2,1.5-4.6c1-2.1,2.6-3.5,4.6-4.5c1.3-0.7,2.8-0.6,4.2-0.4c1.4,0.3,2.2,1.3,2.6,2.6c0.7,2.3,1.1,4.7,0.8,7.1
				c-0.2,1.8-0.6,3.6-0.9,5.4c-0.2,0.9-0.1,1.6,0.4,2.4c0.7,1.2,1.3,2.5,1.7,3.9c0.8,2.4,0.6,4.7-0.5,7c-0.1,0.3-0.4,0.5-0.8,1
				c-0.2-0.5-0.5-0.9-0.5-1.3c-0.4-1.8-1.1-3.5-2.2-5c-0.2-0.2-0.4-0.4-0.6-0.7c-0.3,0.4-0.7,0.8-0.9,1.2c-1,2-2.4,3.7-3.9,5.3
				c-1.7,1.8-3.5,3.5-5.4,5c-4.5,3.7-19.9,13.1-20,13c-0.3-0.2-0.5-0.7-0.3-1c0.2-0.3,0.4-0.6,0.7-0.8c1-0.7,1.9-1.4,2.9-2.2
				c5.1-3.9,10.3-7.7,15.4-11.7c2.7-2.1,5.1-4.5,7.2-7.2C500.8,383,501.5,381.7,502.4,380.4z M504.4,373.8c0.5-1.1,0.4-2.3,0.3-3.5
				c-0.1-1-0.3-2.1-1-3c-0.5-0.7-1.2-1.2-2.1-1.4c-1.2-0.2-2.4-0.1-3.5,0.5c-1.3,0.8-1.4,1.5-0.2,2.4c2,1.5,4,3.1,6,4.7
				C504.1,373.7,504.2,373.7,504.4,373.8z"/>
		</g>
		<g>
			<path class="st0" d="M126.8,368.9c-0.4-0.7-1-1.1-1.4-1.5c-0.9-0.8-1.9-1.5-2.9-2.2c-1.4-1-1.9-2.2-1.4-3.9
				c0.3-1.1,0.5-2.1,1-3.1c0.7-1.4,1.8-2.4,3.1-3.1c0.9-0.5,1.9-0.4,2.8-0.2c0.9,0.2,1.5,0.9,1.8,1.7c0.5,1.6,0.7,3.2,0.5,4.8
				c-0.2,1.2-0.4,2.5-0.6,3.7c-0.1,0.6-0.1,1.1,0.2,1.6c0.5,0.8,0.9,1.7,1.2,2.6c0.5,1.6,0.4,3.2-0.3,4.8c-0.1,0.2-0.3,0.4-0.5,0.7
				c-0.2-0.4-0.3-0.6-0.4-0.8c-0.3-1.2-0.7-2.4-1.5-3.4c-0.1-0.1-0.3-0.3-0.4-0.5c-0.2,0.3-0.5,0.5-0.6,0.8
				c-0.7,1.3-1.6,2.5-2.7,3.6c-1.1,1.2-2.4,2.3-3.7,3.4c-3,2.5-13.5,8.9-13.6,8.8c-0.2-0.1-0.3-0.4-0.2-0.7c0.1-0.2,0.3-0.4,0.5-0.5
				c0.6-0.5,1.3-1,2-1.5c3.5-2.6,7-5.3,10.4-7.9c1.8-1.4,3.4-3.1,4.9-4.9C125.7,370.6,126.2,369.8,126.8,368.9z M128.2,364.3
				c0.4-0.8,0.3-1.6,0.2-2.4c-0.1-0.7-0.2-1.4-0.7-2c-0.4-0.5-0.8-0.8-1.4-0.9c-0.8-0.2-1.6-0.1-2.3,0.4c-0.9,0.5-0.9,1-0.1,1.6
				c1.4,1,2.7,2.1,4,3.2C127.9,364.3,128,364.3,128.2,364.3z"/>
		</g>
		<g>
			<path class="st0" d="M326.3,369.9c-0.3-0.2-0.6-0.4-0.8-0.6c-1.1-1-2.5-1.4-3.9-1.5c-0.9-0.1-1.3,0.3-1.2,1.2
				c0.1,1,0.2,2.1,0.4,3.1c0.5,2.4,1,4.8,1,7.3c0,1.3-0.3,2.6-0.4,3.9c-0.1,0.6-0.2,0.6-0.9,1.3c-1.6-3.7-4-6.6-7.7-8.1
				c-0.1,0.1-0.3,0.2-0.3,0.2c-0.3,1.1-1.1,1.3-2,1.3c-0.6,0-1.3-0.1-1.9-0.2c-0.9-0.2-1.5-0.8-1.7-1.8c-0.3-1.4,0-2.7,0.5-4
				c0.2-0.5,0.6-0.9,1.2-0.8c0.6,0.1,1.3,0,1.9,0.2c2.1,0.5,4.1,1.5,5.9,2.8c1.1,0.8,2,1.8,2.8,2.9c0.2,0.3,0.3,0.8,1,0.9
				c-0.1-0.7-0.2-1.3-0.3-2c-0.3-1.4-0.5-2.9-0.8-4.3c-0.2-1.3-0.2-2.6-0.1-3.9c0.1-1,0.5-1.9,1.1-2.7c0.6-0.7,1.3-1.1,2.3-1.1
				c1.3,0,2.5,0.4,3.5,1.1c1,0.6,1.6,1.5,1.3,2.8C326.8,368.4,326.9,369.2,326.3,369.9z"/>
		</g>
		<g>
			<path class="st0" d="M510.5,323.2c-0.5-0.4-1-0.6-1.3-0.9c-1.8-1.5-3.9-2.1-6.1-2.3c-1.4-0.1-2.1,0.4-2,1.9
				c0.1,1.6,0.3,3.3,0.7,4.9c0.8,3.8,1.6,7.6,1.5,11.5c0,2-0.4,4.1-0.7,6.1c-0.1,1-0.2,0.9-1.5,2c-2.6-5.8-6.3-10.4-12.2-12.9
				c-0.2,0.2-0.4,0.3-0.5,0.4c-0.4,1.7-1.7,2.1-3.2,2c-1,0-2-0.2-2.9-0.4c-1.5-0.4-2.4-1.2-2.8-2.8c-0.5-2.2,0-4.3,0.7-6.3
				c0.3-0.8,0.9-1.4,1.9-1.3c1,0.1,2,0.1,2.9,0.3c3.4,0.9,6.5,2.3,9.4,4.4c1.8,1.3,3.2,2.8,4.5,4.6c0.4,0.5,0.5,1.2,1.5,1.4
				c-0.1-1.1-0.2-2.1-0.4-3.1c-0.4-2.3-0.9-4.5-1.3-6.8c-0.4-2-0.4-4.1-0.2-6.2c0.2-1.6,0.8-3,1.8-4.3c0.9-1.2,2.1-1.8,3.6-1.8
				c2.1,0,3.9,0.7,5.6,1.8c1.5,1,2.5,2.3,2,4.4C511.3,320.7,511.4,321.9,510.5,323.2z"/>
		</g>
		<g>
			<path class="st0" d="M255.2,319.4c-0.4-0.3-0.7-0.5-1-0.7c-1.3-1.2-2.9-1.6-4.6-1.7c-1-0.1-1.5,0.3-1.5,1.4
				c0.1,1.2,0.2,2.5,0.5,3.7c0.6,2.8,1.2,5.7,1.1,8.6c0,1.5-0.3,3.1-0.5,4.6c-0.1,0.7-0.2,0.7-1.1,1.5c-1.9-4.3-4.7-7.8-9.2-9.6
				c-0.2,0.1-0.3,0.2-0.3,0.3c-0.3,1.3-1.3,1.6-2.4,1.5c-0.7,0-1.5-0.1-2.2-0.3c-1.1-0.3-1.8-0.9-2.1-2.1c-0.4-1.7,0-3.2,0.5-4.7
				c0.2-0.6,0.7-1,1.4-0.9c0.7,0.1,1.5,0.1,2.2,0.2c2.5,0.6,4.9,1.7,7,3.3c1.3,0.9,2.4,2.1,3.4,3.4c0.3,0.4,0.4,0.9,1.1,1
				c-0.1-0.8-0.2-1.6-0.3-2.4c-0.3-1.7-0.6-3.4-1-5.1c-0.3-1.5-0.3-3.1-0.1-4.6c0.1-1.2,0.6-2.3,1.3-3.2c0.7-0.9,1.6-1.4,2.7-1.3
				c1.5,0,2.9,0.5,4.2,1.3c1.1,0.7,1.9,1.7,1.5,3.3C255.8,317.6,255.8,318.5,255.2,319.4z"/>
		</g>
		<g>
			<path class="st0" d="M428.6,443.4c0.6,1.5,0.2,2.9,0.4,4.5c0.4,0.3,0.9,0.7,1.4,1.1c1,0.6,2,1.1,3,1.7c0.4,0.2,0.8,0.4,1.3,0.6
				c1.5,0.7,2.3,1.5,1.9,3.6c-0.2,1-0.3,2.1-0.4,3.1c-0.1,0.6-0.3,1.2-0.6,1.8c-0.8,1.5-2,2.7-3.4,3.6c-3.1,1.8-5.7-0.3-6.2-2.7
				c-0.3-1.2-0.3-2.5-0.1-3.7c0.2-1.3,0.4-2.7,0.7-4c0.6-2.1,0.9-4.2,1-6.3C427.6,444.9,427.7,444.8,428.6,443.4z M427.8,451.9
				c-0.5,1.3-0.7,2.5-0.7,3.8c0,0.6,0.1,1.3,0.3,1.9c0.6,2.1,2.3,2.9,4.3,2c1.3-0.6,2.4-1.5,3.2-2.7c0.2-0.2,0.2-0.5,0.4-0.8
				c-1.1-1.1-2.5-1.4-3.7-2.1C430.3,453.3,429.1,452.6,427.8,451.9z"/>
		</g>
		<g>
			<path class="st0" d="M315.1,340.4c0-1.1,0-2.1,0-3.2c0-2.7-0.4-5.4-1.3-7.9c-2.4-7.1-7.4-11.7-14.2-14.5
				c-0.7-0.3-1.4-0.5-2.2-0.8c-0.1-1.9,0.1-3.7,0.2-5.7c0.4,0,0.8,0,1.1,0.1c5.1,2.2,9.6,5.3,13,9.6c4.1,5.1,5.7,11,4.9,17.5
				c-0.2,1.4-0.5,2.7-0.7,4.1c-0.1,0.3-0.2,0.5-0.4,0.8C315.4,340.5,315.2,340.5,315.1,340.4z"/>
		</g>
		<g>
			<path class="st0" d="M577,326.4c0,0.1-3.2,5.5-3.3,5.6c-0.7,0.6-15.3,8.5-17.2,9.6c-3.9,2.1-7.7,4.2-11.6,6.2
				c-2.8,1.5-27.8,15.3-27.9,15.1c-0.1-0.2,2.7-5.5,3.2-6c0.2-0.2,1.9-1.3,4.1-2.7c1.4-0.8,7-4,10.1-5.7c8.3-4.4,23.6-12.6,33-17.6
				C569.7,329.7,576.6,326.2,577,326.4z"/>
		</g>
		<g>
			<path class="st0" d="M115.6,372.7c0,0.1-2.2,3.8-2.2,3.8c-0.5,0.4-10.5,5.8-11.8,6.5c-2.6,1.4-5.3,2.9-7.9,4.2
				c-1.9,1-19,10.4-19.1,10.3c-0.1-0.1,1.8-3.8,2.2-4.1c0.2-0.1,1.3-0.9,2.8-1.8c0.9-0.6,4.8-2.8,6.9-3.9c5.7-3,16.1-8.6,22.5-12
				C110.6,374.9,115.3,372.5,115.6,372.7z"/>
		</g>
		<g>
			<path class="st0" d="M113.7,322.5c0,0.1-3.2,5.5-3.3,5.6c-0.7,0.6-15.3,8.5-17.2,9.6c-3.9,2.1-7.7,4.2-11.6,6.2
				c-2.8,1.5-27.8,15.3-27.9,15.1c-0.1-0.2,2.7-5.5,3.2-6c0.2-0.2,1.9-1.3,4.1-2.7c1.4-0.8,7-4,10.1-5.7c8.3-4.4,23.6-12.6,33-17.6
				C106.3,325.7,113.3,322.2,113.7,322.5z"/>
		</g>
		<g>
			<path class="st0" d="M395.1,336c0,0.1-3.2,5.5-3.3,5.6c-0.7,0.6-15.3,8.5-17.2,9.6c-3.9,2.1-7.7,4.2-11.6,6.2
				c-2.8,1.5-27.8,15.3-27.9,15.1c-0.1-0.2,2.7-5.5,3.2-6c0.2-0.2,1.9-1.3,4.1-2.7c1.4-0.8,7-4,10.1-5.7c8.3-4.4,23.6-12.6,33-17.6
				C387.8,339.3,394.7,335.8,395.1,336z"/>
		</g>
		<g>
			<path class="st0" d="M382.2,313.5c-0.1,0.2-4.7,8.2-4.9,8.3c-1.1,0.8-22.7,12.7-25.5,14.2c-5.7,3.1-11.5,6.2-17.3,9.2
				c-4.1,2.2-41.2,22.7-41.4,22.4c-0.2-0.3,4-8.2,4.7-8.8c0.4-0.3,2.9-1.9,6.1-4c2-1.2,10.3-6,15-8.5c12.3-6.6,34.9-18.7,48.9-26.1
				C371.3,318.3,381.5,313.1,382.2,313.5z"/>
		</g>
		<g>
			<g>
				<path class="st0" d="M23.7,391.6c-1.8-1.4-3.5-3-5.4-4.2c-3.1-2-6.4-3.9-9.6-5.8c-0.8-0.4-0.5-1.1-0.4-1.6
					c0.3-2.5,0.8-5,1.6-7.4c0.2-0.6,0.5-0.7,0.9-0.5c2.3,1.2,4.6,2.2,6.8,3.5c2.9,1.8,5.7,3.7,8.5,5.7c0.8,0.6,1.6,1.2,2.4,1.8
					c0.2,0.1,0.4,0.3,0.6,0.5c5.4-8.5,11.5-16.6,15.5-25.9c0.1,0,0.2,0,0.3,0.1c0.1,0.6,0.3,1.2,0.3,1.8c0.2,3.2-0.5,6.2-1.8,9.1
					c-1.6,3.5-3.6,6.8-5.6,10c-1.6,2.6-3.3,5.2-5.1,7.7c-0.2,0.4-0.3,0.5,0,0.9c2.4,2.7,4.5,5.6,6.1,8.8c1.1,2.2,1.9,4.4,2.1,6.9
					c0.1,2.1,0.4,4.2,0.2,6.2c-0.2,2-0.9,3.9-1.4,5.9c-0.9,3.4-3.1,5.8-5.9,7.8c-2,1.4-3.9,2.9-6.1,4c-2.6,1.4-5.5,2.5-8.6,2.2
					c-1.8-0.2-3.2-1-4.1-2.6c-1.1-1.8-1.4-3.8-1.5-5.9c0-0.9,0-1.9,0-2.8c0-2.3,0.4-4.6,0.9-6.9c0.6-2.7,1.6-5.3,2.7-7.8
					c1-2.1,2.2-4.2,3.4-6.2C21.5,395.1,22.6,393.4,23.7,391.6z M27.4,394.9c-1.6,2.3-3.1,4.4-4.5,6.7c-1.2,1.9-2.4,3.9-3.5,5.9
					c-1,1.9-1.8,3.9-2.5,5.9c-0.6,1.6,0.1,3,1.6,3.7c1.5,0.7,3.1,0.7,4.5,0.4c2-0.4,3.9-1.2,5.8-2c3.1-1.4,5.7-3.4,8.1-5.8
					c1.2-1.2,1.2-1.4,0.4-2.9c-1.4-2.7-3.3-5.2-5.4-7.4C30.6,398,29.1,396.6,27.4,394.9z"/>
			</g>
		</g>
	</g>
</g>
</svg>
